<svg width="39" height="37" viewBox="0 0 39 37" fill="none" xmlns="http://www.w3.org/2000/svg">
<g clip-path="url(#clip0_1_93)">
<path d="M27.8967 0.474548H11.1033V36.5255H27.8967V0.474548Z" fill="#F7B239"/>
<path d="M27.8968 37H11.1032C10.827 37 10.603 36.7875 10.603 36.5255V0.474541C10.603 0.212515 10.827 0 11.1032 0H27.8968C28.173 0 28.397 0.212515 28.397 0.474541V36.5255C28.397 36.7876 28.1731 37 27.8968 37ZM11.6034 36.0509H27.3966V0.949083H11.6034V36.0509Z" fill="#8294D4"/>
<path d="M26.0518 2.22559V34.7744H12.9483V2.22559H26.0518Z" fill="#81BBEA"/>
<path d="M26.0518 2.22559H24.1168L12.9483 12.8221V29.9839L26.0518 17.5525V2.22559Z" fill="#8294D4"/>
<path d="M26.0517 27.2371L18.107 34.7744H26.0517V27.2371Z" fill="#8294D4"/>
<path d="M26.0513 35.2493H12.9486C12.6723 35.2493 12.4484 35.0367 12.4484 34.7747V2.22537C12.4484 1.96334 12.6723 1.75082 12.9486 1.75082H26.0513C26.3275 1.75082 26.5515 1.96334 26.5515 2.22537V34.7747C26.5515 35.0367 26.3276 35.2493 26.0513 35.2493ZM13.4488 34.3002H25.5511V2.69991H13.4488V34.3002Z" fill="#8294D4"/>
<path d="M23.9257 33.1901C23.6495 33.1901 23.4255 32.9776 23.4255 32.7155V6.02392C23.4255 5.76189 23.6495 5.54938 23.9257 5.54938C24.2019 5.54938 24.4259 5.76189 24.4259 6.02392V32.7155C24.4259 32.9776 24.2019 33.1901 23.9257 33.1901Z" fill="#8294D4"/>
<path d="M23.9261 4.6006C23.7935 4.6006 23.6651 4.54999 23.5718 4.4614C23.4792 4.37282 23.425 4.25102 23.425 4.12606C23.425 4.09443 23.4284 4.06358 23.4351 4.03273C23.4417 4.00268 23.4508 3.97263 23.4634 3.94415C23.4758 3.91568 23.4917 3.888 23.5101 3.86269C23.5276 3.83659 23.5493 3.81207 23.5718 3.78993C23.6651 3.70214 23.7935 3.65152 23.9261 3.65152C24.0578 3.65152 24.1862 3.70214 24.2795 3.78993C24.3021 3.81207 24.3229 3.83659 24.3411 3.86269C24.3596 3.888 24.3753 3.91568 24.3879 3.94415C24.3996 3.97263 24.4096 4.00268 24.4163 4.03273C24.4229 4.06358 24.4263 4.09443 24.4263 4.12606C24.4263 4.25102 24.3721 4.37282 24.2795 4.4614C24.1862 4.54999 24.0578 4.6006 23.9261 4.6006Z" fill="#8294D4"/>
<g clip-path="url(#clip1_1_93)">
<path d="M41.3347 15.8571H15.8653V39.1574H41.3347V15.8571Z" fill="white" fill-opacity="0.01"/>
<path d="M41.3347 16.3426H15.8653V39.6429H41.3347V16.3426Z" fill="white" fill-opacity="0.01"/>
<path d="M19.049 20.35L28.6045 17.7988L38.151 20.35V25.582C38.151 31.0811 34.3042 35.9631 28.6013 37.7014C22.897 35.9631 19.049 31.08 19.049 25.5795V20.35Z" fill="#2F88FF" stroke="black" stroke-width="4" stroke-linejoin="round"/>
<path d="M23.8245 27.0219L27.5387 30.4198L33.9061 24.5948" stroke="white" stroke-width="4" stroke-linecap="round" stroke-linejoin="round"/>
</g>
</g>
<defs>
<clipPath id="clip0_1_93">
<rect width="39" height="37" fill="white"/>
</clipPath>
<clipPath id="clip1_1_93">
<rect width="26" height="23.7857" fill="white" transform="translate(15.6 15.8571)"/>
</clipPath>
</defs>
</svg>
