<svg width="24" height="45" viewBox="0 0 24 45" fill="none" xmlns="http://www.w3.org/2000/svg">
<path d="M19.5047 0H4.49533C2.01667 0 0 2.26875 0 5.05725V39.9427C0 42.7313 2.01667 45 4.49533 45H19.5047C21.9833 45 24 42.7313 24 39.9427V5.05725C24 2.26875 21.9833 0 19.5047 0ZM22.6667 39.9427C22.6667 41.904 21.248 43.5 19.5047 43.5H4.49533C2.752 43.5 1.33333 41.904 1.33333 39.9427V5.05725C1.33333 3.096 2.752 1.5 4.49533 1.5H19.5047C21.248 1.5 22.6667 3.096 22.6667 5.05725V39.9427Z" fill="#8294D4"/>
<path d="M9.99998 3.75H14C14.3686 3.75 14.6666 3.41475 14.6666 3C14.6666 2.58525 14.3686 2.25 14 2.25H9.99998C9.63131 2.25 9.33331 2.58525 9.33331 3C9.33331 3.41475 9.63131 3.75 9.99998 3.75Z" fill="#8294D4"/>
<path d="M19.3334 3.75H20C20.3687 3.75 20.6667 3.41475 20.6667 3C20.6667 2.58525 20.3687 2.25 20 2.25H19.3334C18.9647 2.25 18.6667 2.58525 18.6667 3C18.6667 3.41475 18.9647 3.75 19.3334 3.75Z" fill="#8294D4"/>
<path d="M16.6667 3.75H17.3333C17.702 3.75 18 3.41475 18 3C18 2.58525 17.702 2.25 17.3333 2.25H16.6667C16.298 2.25 16 2.58525 16 3C16 3.41475 16.298 3.75 16.6667 3.75Z" fill="#8294D4"/>
<path d="M13.6667 39H10.3334C9.41402 39 8.66669 39.8408 8.66669 40.875C8.66669 41.9093 9.41402 42.75 10.3334 42.75H13.6667C14.586 42.75 15.3334 41.9093 15.3334 40.875C15.3334 39.8408 14.586 39 13.6667 39ZM13.6667 41.25H10.3334C10.1527 41.25 10 41.0782 10 40.875C10 40.6717 10.1527 40.5 10.3334 40.5H13.6667C13.8474 40.5 14 40.6717 14 40.875C14 41.0782 13.8474 41.25 13.6667 41.25Z" fill="#8294D4"/>
<path d="M2 4.5V38.25H22V4.5H2ZM10.1953 6.96975C10.456 6.6765 10.8773 6.6765 11.138 6.96975C11.3987 7.263 11.3987 7.737 11.138 8.03025L9.138 10.2802C9.008 10.4265 8.83733 10.5 8.66667 10.5C8.496 10.5 8.32533 10.4265 8.19533 10.2802C7.93467 9.987 7.93467 9.513 8.19533 9.21975L10.1953 6.96975ZM4.19533 9.96975L6.862 6.96975C7.12267 6.6765 7.544 6.6765 7.80467 6.96975C8.06533 7.263 8.06533 7.737 7.80467 8.03025L5.138 11.0302C5.008 11.1765 4.83733 11.25 4.66667 11.25C4.496 11.25 4.32533 11.1765 4.19533 11.0302C3.93467 10.737 3.93467 10.263 4.19533 9.96975ZM8 11.25C8 11.445 7.92667 11.64 7.80667 11.7825C7.68 11.9175 7.50667 12 7.33333 12C7.16 12 6.986 11.9175 6.86 11.7825C6.73933 11.64 6.66667 11.445 6.66667 11.25C6.66667 11.0468 6.73933 10.8593 6.86 10.7175C7.10667 10.44 7.55333 10.44 7.80667 10.7175C7.92667 10.8593 8 11.055 8 11.25ZM4.19533 13.7197L5.52867 12.2197C5.78933 11.9265 6.21067 11.9265 6.47133 12.2197C6.732 12.513 6.732 12.987 6.47133 13.2803L5.138 14.7803C5.008 14.9265 4.83733 15 4.66667 15C4.496 15 4.32533 14.9265 4.19533 14.7803C3.93467 14.487 3.93467 14.013 4.19533 13.7197ZM11.138 11.7802L5.138 18.5303C5.008 18.6765 4.83733 18.75 4.66667 18.75C4.496 18.75 4.32533 18.6765 4.19533 18.5303C3.93467 18.237 3.93467 17.763 4.19533 17.4697L10.1953 10.7198C10.456 10.4265 10.8773 10.4265 11.138 10.7198C11.3987 11.013 11.3987 11.487 11.138 11.7802ZM12.4733 10.2825C12.3467 10.4175 12.1733 10.5 12 10.5C11.8267 10.5 11.6527 10.4175 11.5267 10.2825C11.406 10.14 11.3333 9.945 11.3333 9.75C11.3333 9.555 11.406 9.35925 11.5267 9.2175C11.7733 8.94 12.2267 8.94 12.4733 9.2175C12.5933 9.35925 12.6667 9.555 12.6667 9.75C12.6667 9.945 12.5933 10.14 12.4733 10.2825ZM14.4713 8.03025L13.8047 8.78025C13.6747 8.9265 13.504 9 13.3333 9C13.1627 9 12.992 8.9265 12.862 8.78025C12.6013 8.487 12.6013 8.013 12.862 7.71975L13.5287 6.96975C13.7893 6.6765 14.2107 6.6765 14.4713 6.96975C14.732 7.263 14.732 7.737 14.4713 8.03025Z" fill="#8294D4"/>
</svg>
