<svg width="64" height="47" viewBox="0 0 64 47" fill="none" xmlns="http://www.w3.org/2000/svg">
<path d="M60 2.9375H4C1.7908 2.9375 0 4.25269 0 5.875V41.125C0 42.7473 1.7908 44.0625 4 44.0625H60C62.2092 44.0625 64 42.7473 64 41.125V5.875C64 4.25269 62.2092 2.9375 60 2.9375ZM62 41.125C62 41.9349 61.1028 42.5938 60 42.5938H4C2.8972 42.5938 2 41.9349 2 41.125V5.875C2 5.06513 2.8972 4.40625 4 4.40625H60C61.1028 4.40625 62 5.06513 62 5.875V41.125Z" fill="#8294D4"/>
<path d="M32 23.5C36.4183 23.5 40 20.5408 40 16.8906C40 13.2403 36.4183 10.2812 32 10.2812C27.5817 10.2812 24 13.2403 24 16.8906C24 20.5408 27.5817 23.5 32 23.5ZM32 11.75C35.3084 11.75 38 14.0561 38 16.8906C38 19.7252 35.3084 22.0312 32 22.0312C28.6916 22.0312 26 19.7252 26 16.8906C26 14.0561 28.6916 11.75 32 11.75Z" fill="#8294D4"/>
<path d="M31.9999 24.2344C23.1634 24.2344 16 29.6561 16 36.3441C16 37.2296 16.1333 38.0905 16.3716 38.9219H47.6284C47.8667 38.0905 48 37.2296 48 36.3441C48 29.6561 40.8365 24.2344 31.9999 24.2344ZM45.9209 37.4531H18.0791C18.0265 37.0812 18 36.7107 18 36.3441C18 30.4767 24.2803 25.7031 31.9999 25.7031C39.7196 25.7031 46 30.4767 46 36.3441C46 36.7107 45.9735 37.0812 45.9209 37.4531Z" fill="#8294D4"/>
</svg>
