<svg width="32" height="41" viewBox="0 0 32 41" fill="none" xmlns="http://www.w3.org/2000/svg">
<g clip-path="url(#clip0_33_4)">
<path d="M22.0038 0H9.99629C8.01336 0 6.40002 2.06708 6.40002 4.60772V36.3923C6.40002 38.9329 8.01336 41 9.99629 41H22.0038C23.9867 41 25.6 38.9329 25.6 36.3923V4.60772C25.6 2.06708 23.9867 0 22.0038 0ZM24.5334 36.3923C24.5334 38.1792 23.3984 39.6333 22.0038 39.6333H9.99629C8.60162 39.6333 7.46669 38.1792 7.46669 36.3923V4.60772C7.46669 2.8208 8.60162 1.36667 9.99629 1.36667H22.0038C23.3984 1.36667 24.5334 2.8208 24.5334 4.60772V36.3923Z" fill="#8294D4"/>
<path d="M14.4 3.41665H17.6C17.895 3.41665 18.1334 3.1112 18.1334 2.73332C18.1334 2.35544 17.895 2.04999 17.6 2.04999H14.4C14.1051 2.04999 13.8667 2.35544 13.8667 2.73332C13.8667 3.1112 14.1051 3.41665 14.4 3.41665Z" fill="#8294D4"/>
<path d="M21.8667 3.41665H22.4C22.695 3.41665 22.9334 3.1112 22.9334 2.73332C22.9334 2.35544 22.695 2.04999 22.4 2.04999H21.8667C21.5718 2.04999 21.3334 2.35544 21.3334 2.73332C21.3334 3.1112 21.5718 3.41665 21.8667 3.41665Z" fill="#8294D4"/>
<path d="M19.7333 3.41665H20.2667C20.5616 3.41665 20.8 3.1112 20.8 2.73332C20.8 2.35544 20.5616 2.04999 20.2667 2.04999H19.7333C19.4384 2.04999 19.2 2.35544 19.2 2.73332C19.2 3.1112 19.4384 3.41665 19.7333 3.41665Z" fill="#8294D4"/>
<path d="M17.3334 35.5333H14.6667C13.9312 35.5333 13.3334 36.2993 13.3334 37.2417C13.3334 38.184 13.9312 38.95 14.6667 38.95H17.3334C18.0688 38.95 18.6667 38.184 18.6667 37.2417C18.6667 36.2993 18.0688 35.5333 17.3334 35.5333ZM17.3334 37.5833H14.6667C14.5222 37.5833 14.4 37.4268 14.4 37.2417C14.4 37.0565 14.5222 36.9 14.6667 36.9H17.3334C17.4779 36.9 17.6 37.0565 17.6 37.2417C17.6 37.4268 17.4779 37.5833 17.3334 37.5833Z" fill="#8294D4"/>
<path d="M8 4.10001V34.85H24V4.10001H8ZM14.5563 6.35022C14.7648 6.08304 15.1019 6.08304 15.3104 6.35022C15.5189 6.61741 15.5189 7.04927 15.3104 7.31646L13.7104 9.36646C13.6064 9.49971 13.4699 9.56667 13.3333 9.56667C13.1968 9.56667 13.0603 9.49971 12.9563 9.36646C12.7477 9.09927 12.7477 8.66741 12.9563 8.40022L14.5563 6.35022ZM9.75627 9.08356L11.8896 6.35022C12.0981 6.08304 12.4352 6.08304 12.6437 6.35022C12.8523 6.61741 12.8523 7.04927 12.6437 7.31646L10.5104 10.0498C10.4064 10.183 10.2699 10.25 10.1333 10.25C9.9968 10.25 9.86027 10.183 9.75627 10.0498C9.54773 9.78261 9.54773 9.35074 9.75627 9.08356ZM12.8 10.25C12.8 10.4277 12.7413 10.6053 12.6453 10.7352C12.544 10.8582 12.4053 10.9333 12.2667 10.9333C12.128 10.9333 11.9888 10.8582 11.888 10.7352C11.7915 10.6053 11.7333 10.4277 11.7333 10.25C11.7333 10.0648 11.7915 9.89399 11.888 9.76484C12.0853 9.51201 12.4427 9.51201 12.6453 9.76484C12.7413 9.89399 12.8 10.0723 12.8 10.25ZM9.75627 12.5002L10.8229 11.1336C11.0315 10.8664 11.3685 10.8664 11.5771 11.1336C11.7856 11.4007 11.7856 11.8326 11.5771 12.0998L10.5104 13.4665C10.4064 13.5997 10.2699 13.6667 10.1333 13.6667C9.9968 13.6667 9.86027 13.5997 9.75627 13.4665C9.54773 13.1993 9.54773 12.7674 9.75627 12.5002ZM15.3104 10.7331L10.5104 16.8831C10.4064 17.0164 10.2699 17.0833 10.1333 17.0833C9.9968 17.0833 9.86027 17.0164 9.75627 16.8831C9.54773 16.6159 9.54773 16.1841 9.75627 15.9169L14.5563 9.76689C14.7648 9.49971 15.1019 9.49971 15.3104 9.76689C15.5189 10.0341 15.5189 10.4659 15.3104 10.7331ZM16.3787 9.36851C16.2773 9.49151 16.1387 9.56667 16 9.56667C15.8613 9.56667 15.7221 9.49151 15.6213 9.36851C15.5248 9.23867 15.4667 9.06101 15.4667 8.88334C15.4667 8.70567 15.5248 8.52732 15.6213 8.39817C15.8187 8.14534 16.1813 8.14534 16.3787 8.39817C16.4747 8.52732 16.5333 8.70567 16.5333 8.88334C16.5333 9.06101 16.4747 9.23867 16.3787 9.36851ZM17.9771 7.31646L17.4437 7.99979C17.3397 8.13304 17.2032 8.20001 17.0667 8.20001C16.9301 8.20001 16.7936 8.13304 16.6896 7.99979C16.4811 7.73261 16.4811 7.30074 16.6896 7.03356L17.2229 6.35022C17.4315 6.08304 17.7685 6.08304 17.9771 6.35022C18.1856 6.61741 18.1856 7.04927 17.9771 7.31646Z" fill="#8294D4"/>
<path d="M33.7883 26.5192C33.7501 26.2871 33.5521 26.0962 33.2846 26.0335L24.7104 24.0215C24.5882 23.9928 24.459 23.9928 24.3368 24.0215L15.7626 26.0335C15.4949 26.0962 15.297 26.287 15.2588 26.5192C15.2091 26.8209 14.0746 33.9501 16.9846 37.4965C19.8911 41.0389 24.1789 41.9466 24.3599 41.9835C24.4138 41.9945 24.4686 41.9999 24.5236 41.9999C24.5787 41.9999 24.6335 41.9944 24.6873 41.9835C24.8685 41.9465 29.1563 41.0388 32.0627 37.4965C34.9726 33.9501 33.8381 26.8209 33.7883 26.5192ZM30.8104 36.7622C28.2895 39.8347 24.5132 40.6043 24.5132 40.6043V33H16.7309C16.279 30.146 16.7619 27.2145 16.7619 27.2145L24.5131 25.3956L24.5132 33H32.2955C32.0758 34.3876 31.6352 35.7571 30.8104 36.7622Z" fill="#010204"/>
</g>
<defs>
<clipPath id="clip0_33_4">
<rect width="32" height="41" fill="white"/>
</clipPath>
</defs>
</svg>
